<svg width="205" height="35" viewBox="0 0 205 35" fill="none" xmlns="http://www.w3.org/2000/svg">
<path d="M6.59979 27H0.832742L9.62003 1.54545H16.5554L25.3303 27H19.5632L13.1871 7.36222H12.9883L6.59979 27ZM6.23935 16.9947H19.8615V21.1957H6.23935V16.9947ZM33.5893 15.9631V27H28.2946V7.90909H33.3407V11.2773H33.5645C33.987 10.167 34.6955 9.28871 35.6898 8.6424C36.6841 7.98781 37.8897 7.66051 39.3066 7.66051C40.6324 7.66051 41.7883 7.95052 42.7743 8.53054C43.7604 9.11056 44.5268 9.93916 45.0737 11.0163C45.6206 12.0852 45.894 13.3613 45.894 14.8445V27H40.5993V15.7891C40.6075 14.6207 40.3092 13.7093 39.7044 13.0547C39.0995 12.3918 38.2667 12.0604 37.2061 12.0604C36.4935 12.0604 35.8638 12.2137 35.3169 12.5202C34.7784 12.8268 34.3558 13.2743 34.0492 13.8626C33.7509 14.4426 33.5976 15.1428 33.5893 15.9631ZM55.3618 15.9631V27H50.067V7.90909H55.1132V11.2773H55.3369C55.7595 10.167 56.468 9.28871 57.4623 8.6424C58.4566 7.98781 59.6622 7.66051 61.0791 7.66051C62.4049 7.66051 63.5608 7.95052 64.5468 8.53054C65.5328 9.11056 66.2993 9.93916 66.8461 11.0163C67.393 12.0852 67.6665 13.3613 67.6665 14.8445V27H62.3717V15.7891C62.38 14.6207 62.0817 13.7093 61.4768 13.0547C60.872 12.3918 60.0392 12.0604 58.9786 12.0604C58.266 12.0604 57.6363 12.2137 57.0894 12.5202C56.5508 12.8268 56.1282 13.2743 55.8216 13.8626C55.5233 14.4426 55.3701 15.1428 55.3618 15.9631ZM71.8395 27V7.90909H77.1342V27H71.8395ZM74.4993 5.44815C73.7121 5.44815 73.0368 5.18714 72.4734 4.66513C71.9182 4.13482 71.6406 3.50095 71.6406 2.76349C71.6406 2.03433 71.9182 1.40874 72.4734 0.886719C73.0368 0.356415 73.7121 0.0912629 74.4993 0.0912629C75.2865 0.0912629 75.9576 0.356415 76.5128 0.886719C77.0762 1.40874 77.358 2.03433 77.358 2.76349C77.358 3.50095 77.0762 4.13482 76.5128 4.66513C75.9576 5.18714 75.2865 5.44815 74.4993 5.44815ZM90.0759 27.3729C88.1121 27.3729 86.4218 26.9751 85.0049 26.1797C83.5963 25.3759 82.5108 24.2408 81.7485 22.7741C80.9862 21.2992 80.605 19.555 80.605 17.5415C80.605 15.5778 80.9862 13.8543 81.7485 12.3711C82.5108 10.8879 83.5838 9.73201 84.9676 8.90341C86.3596 8.07481 87.992 7.66051 89.8646 7.66051C91.1241 7.66051 92.2965 7.86352 93.382 8.26953C94.4758 8.66726 95.4287 9.26799 96.2407 10.0717C97.061 10.8755 97.699 11.8864 98.1547 13.1044C98.6105 14.3142 98.8383 15.7311 98.8383 17.3551V18.8093H82.718V15.5281H93.8543C93.8543 14.7657 93.6886 14.0904 93.3572 13.5021C93.0257 12.9138 92.5658 12.454 91.9775 12.1225C91.3975 11.7828 90.7222 11.6129 89.9516 11.6129C89.1479 11.6129 88.4353 11.7994 87.8138 12.1722C87.2007 12.5368 86.7201 13.0298 86.3721 13.6513C86.0241 14.2644 85.8459 14.948 85.8376 15.7021V18.8217C85.8376 19.7663 86.0116 20.5825 86.3596 21.2702C86.7159 21.958 87.2172 22.4883 87.8635 22.8612C88.5099 23.234 89.2763 23.4205 90.1629 23.4205C90.7512 23.4205 91.2898 23.3376 91.7787 23.1719C92.2675 23.0062 92.686 22.7576 93.034 22.4261C93.382 22.0947 93.6472 21.6887 93.8295 21.2081L98.7265 21.5312C98.4779 22.7079 97.9683 23.7353 97.1977 24.6136C96.4354 25.4837 95.4494 26.1631 94.2396 26.652C93.0381 27.1326 91.6502 27.3729 90.0759 27.3729ZM116.223 27L108.94 1.54545H114.819L119.032 19.2319H119.244L123.892 1.54545H128.926L133.562 19.2692H133.786L137.999 1.54545H143.878L136.594 27H131.349L126.502 10.3576H126.303L121.468 27H116.223ZM150.052 27.3604C148.834 27.3604 147.748 27.1491 146.796 26.7266C145.843 26.2957 145.089 25.6618 144.533 24.8249C143.987 23.9798 143.713 22.9274 143.713 21.668C143.713 20.6074 143.908 19.7166 144.297 18.9957C144.687 18.2749 145.217 17.6948 145.888 17.2557C146.559 16.8165 147.322 16.4851 148.175 16.2614C149.037 16.0376 149.94 15.8802 150.885 15.7891C151.995 15.6731 152.89 15.5653 153.569 15.4659C154.249 15.3582 154.742 15.2008 155.048 14.9936C155.355 14.7865 155.508 14.4799 155.508 14.0739V13.9993C155.508 13.2121 155.26 12.6031 154.763 12.1722C154.274 11.7414 153.578 11.5259 152.674 11.5259C151.722 11.5259 150.963 11.7372 150.4 12.1598C149.836 12.5741 149.464 13.0961 149.281 13.7259L144.384 13.3281C144.633 12.1681 145.122 11.1655 145.851 10.3203C146.58 9.46686 147.521 8.81226 148.672 8.35653C149.832 7.89252 151.175 7.66051 152.699 7.66051C153.76 7.66051 154.775 7.7848 155.744 8.03338C156.722 8.28196 157.588 8.66726 158.342 9.18927C159.104 9.71129 159.705 10.3825 160.144 11.2028C160.583 12.0148 160.803 12.9884 160.803 14.1236V27H155.782V24.3526H155.633C155.326 24.9492 154.916 25.4754 154.402 25.9311C153.888 26.3786 153.271 26.7307 152.55 26.9876C151.829 27.2362 150.997 27.3604 150.052 27.3604ZM151.568 23.7063C152.347 23.7063 153.035 23.553 153.631 23.2464C154.228 22.9316 154.696 22.509 155.036 21.9787C155.376 21.4484 155.546 20.8477 155.546 20.1765V18.1506C155.38 18.2583 155.152 18.3577 154.862 18.4489C154.58 18.5317 154.261 18.6104 153.905 18.685C153.549 18.7513 153.192 18.8134 152.836 18.8714C152.48 18.9212 152.157 18.9667 151.867 19.0082C151.245 19.0993 150.702 19.2443 150.238 19.4432C149.774 19.642 149.414 19.9113 149.157 20.2511C148.9 20.5825 148.772 20.9968 148.772 21.494C148.772 22.2148 149.033 22.7659 149.555 23.147C150.085 23.5199 150.756 23.7063 151.568 23.7063ZM170.206 15.9631V27H164.911V7.90909H169.957V11.2773H170.181C170.603 10.167 171.312 9.28871 172.306 8.6424C173.3 7.98781 174.506 7.66051 175.923 7.66051C177.249 7.66051 178.405 7.95052 179.391 8.53054C180.377 9.11056 181.143 9.93916 181.69 11.0163C182.237 12.0852 182.51 13.3613 182.51 14.8445V27H177.215V15.7891C177.224 14.6207 176.925 13.7093 176.321 13.0547C175.716 12.3918 174.883 12.0604 173.822 12.0604C173.11 12.0604 172.48 12.2137 171.933 12.5202C171.395 12.8268 170.972 13.2743 170.665 13.8626C170.367 14.4426 170.214 15.1428 170.206 15.9631ZM195.284 34.5568C193.569 34.5568 192.098 34.3207 190.872 33.8484C189.654 33.3844 188.684 32.7505 187.963 31.9467C187.243 31.143 186.774 30.2398 186.559 29.2372L191.456 28.5785C191.605 28.9596 191.841 29.3159 192.164 29.6474C192.488 29.9788 192.914 30.244 193.445 30.4428C193.983 30.65 194.638 30.7536 195.408 30.7536C196.56 30.7536 197.509 30.4718 198.255 29.9084C199.009 29.3532 199.386 28.421 199.386 27.1119V23.6193H199.162C198.93 24.1496 198.582 24.6509 198.118 25.1232C197.654 25.5955 197.057 25.9808 196.328 26.2791C195.599 26.5774 194.729 26.7266 193.718 26.7266C192.285 26.7266 190.98 26.3951 189.803 25.7322C188.635 25.0611 187.702 24.0378 187.006 22.6623C186.319 21.2785 185.975 19.5302 185.975 17.4173C185.975 15.2546 186.327 13.4483 187.031 11.9982C187.736 10.5482 188.672 9.46271 189.84 8.74183C191.017 8.02095 192.305 7.66051 193.706 7.66051C194.775 7.66051 195.669 7.8428 196.39 8.20739C197.111 8.56368 197.691 9.01113 198.13 9.54972C198.578 10.08 198.922 10.602 199.162 11.1158H199.361V7.90909H204.618V27.1864C204.618 28.8105 204.221 30.1694 203.425 31.2631C202.63 32.3569 201.528 33.1772 200.119 33.7241C198.719 34.2792 197.107 34.5568 195.284 34.5568ZM195.396 22.7493C196.249 22.7493 196.97 22.538 197.559 22.1154C198.155 21.6845 198.611 21.0714 198.926 20.2759C199.249 19.4722 199.411 18.511 199.411 17.3924C199.411 16.2738 199.253 15.3043 198.938 14.484C198.623 13.6554 198.168 13.0133 197.571 12.5575C196.974 12.1018 196.249 11.8739 195.396 11.8739C194.526 11.8739 193.793 12.1101 193.196 12.5824C192.599 13.0464 192.148 13.6927 191.841 14.5213C191.535 15.3499 191.381 16.3069 191.381 17.3924C191.381 18.4944 191.535 19.4473 191.841 20.2511C192.156 21.0465 192.608 21.6638 193.196 22.103C193.793 22.5339 194.526 22.7493 195.396 22.7493Z" fill="white"/>
</svg>
